# xmcd CD database file
#
# Track frame offsets:
#	150
#	17250
#	33817
#	103680
#	122432
#	144897
#	164675
#	202477
#	224347
#	258867
#	276787
#
# Disc length: 4475 seconds
#
# Revision: 0
# Processed by: cddbd v1.4PL0 Copyright (c) Steve Scherf et al.
# Submitted via: CDex 1.50beta8
#
DISCID=9711790b
DTITLE=Ben Webster - The Soul of Ben Webster [CD1]
DYEAR=1958
DGENRE=Jazz
TTITLE0=Fajista
TTITLE1=Chelsea Bridge
TTITLE2=Charlotte's Piccolo
TTITLE3=Coal Train
TTITLE4=When I Fall in Love
TTITLE5=Ev's Mad
TTITLE6=Ash
TTITLE7=Blues for the Blues
TTITLE8=Blues for Piney Brown
TTITLE9=Moonlight in Vermont
TTITLE10=Taste on the Place/Blues for the Blues (alt. take)
EXTD=YEAR: 1958
EXTT0=
EXTT1=
EXTT2=
EXTT3=
EXTT4=
EXTT5=
EXTT6=
EXTT7=
EXTT8=
EXTT9=
EXTT10=
PLAYORDER=
